<?xml version="1.0" encoding="utf-8"?>
<!-- Generator: Adobe Illustrator 22.1.0, SVG Export Plug-In . SVG Version: 6.00 Build 0)  -->
<svg version="1.1" id="Capa_1" xmlns="http://www.w3.org/2000/svg" xmlns:xlink="http://www.w3.org/1999/xlink" x="0px" y="0px"
	 viewBox="0 0 445 199" style="enable-background:new 0 0 445 199;" xml:space="preserve">
<style type="text/css">
	.st0{fill:#0072BB;}
</style>
<path class="st0" d="M434.9,197.6c-0.9,0-3,0-4.5,0c3.2,0-5.3,0.2-13.8,0.4c-3.6-0.1-11-0.1-10.4-0.2c-0.5,0-0.8,0-1.1,0l-2.6-0.1
	c1.6,0,4.4-0.1,7.3-0.1c-0.7,0-1.3,0-1.9,0.1c2.4,0.1,9.8,0.1,14,0c0-0.1-1.5-0.1-1.4-0.2c1.3,0,3.2-0.1,5.1-0.1c0.6,0,1.2,0,1.8,0
	l1.1,0c1.3,0,2.7,0,4,0C433.4,197.6,434.2,197.6,434.9,197.6 M14.5,1.4c-3.2,0,6,0,14.5-0.2c3.6,0.1,10.3-0.2,9.7,0
	c0.5,0,0.8,0,1.1,0l2.6,0.1c-1.6,0-4.4,0.1-7.3,0.1c0.7,0,1.3,0,1.9-0.1c-2.4-0.1-9.8-0.1-14,0c0,0.1,1.5,0.1,1.4,0.2
	c-1.3,0-3.2,0.1-5.1,0.1c-0.6,0-1.2,0-1.8,0l-1.1,0c-1.3,0-2.7,0-4,0C11.6,1.4,13.1,1.4,14.5,1.4 M444.2,145.2
	c0.4-11.5,0.6-23,0.8-34.6c-0.7-16.5-0.1-34.3-0.4-51.4c-0.2-7.3-0.3-14.8-0.5-22.2c0.1-5.1,0.2-10.4,0.2-15.6c0-6.8,0-13.7,0-20.4
	c-16.6,0-32.9,0-48.8,0c-13.3,0-26.3,0-38.8,0c-0.5,0.2,9.9,0,12.7,0.2c-8.3,0-16.8,0-25.5,0C318.5,1,293,0.8,267.5,0.8
	c-6.2-0.1-13.8-0.2-16.6-0.3c-11-0.1-6.5,0.1-14.5,0.1l-1.1-0.2c-11.7,0.2-17.1-0.3-28.2-0.2c-0.6,0.1-4.6,0.1-8.5,0.1
	c-0.2-0.3-12.1,0-11.5-0.2L187,0c-2.4,0-4,0-6.9,0c-4.5,0.1-46.6,0.8-51.2,0.9l-2.1,0c-6.3,0-9,0.2-5.3,0.3l-7.8,0l0.9,0l-7.7,0
	c-1.4,0-3-0.1-0.8-0.3c-4.4,0.1-9.3,0.1-13.7,0.1c7.8,0.1,16.8,0.2,25.7,0.4c-4.9,0-9.9,0.1-14.9,0.1c-6.9-0.1-15.4-0.2-22.6-0.3
	c-2.4,0-4,0.3-9.4,0.2c-2.6-0.2-6.1,0-10.6-0.1c5.2-0.1,10.2-0.1,15.4,0C75,0.9,63.2,0.9,59,0.9c-1.9,0.1-12,0-18.4,0.1
	c1.8-0.1-0.9-0.2-4.1-0.2c-0.6,0-1.3,0-1.9,0c0.6,0,1.3,0,1.9,0c-1.7,0-3.4,0.1-4.7,0.1c-4.3,0-6.8,0.1-5.1,0.2
	C26.4,1,6.2,1.4,8.6,1.4c1.3,0,1.4,0.1,1.2,0.1c-0.6,0-0.9,0-0.7,0.1C8.4,1.6,8,1.7,9.9,1.7l1.8-0.1c3.3,0,4.9,0.1,5.5,0.1
	c-1.7,0-3.4,0-5.1,0c-2.9,0-5.8,0-8.8,0c0,0.8,0,1.6-0.1,2.3c-1,5.6-0.1,6.1-1,11.1l0.3-0.2C2.2,19.5,2,23.9,1.8,28.3
	c0,0.4-0.1,0.8-0.1,1.1c-0.6,8.5-1,16.6-0.9,24.1c0,0.1,0,0.2,0,0.3C0.5,65.3,0.2,76.8,0,88.4c0.7,16.5,0.1,34.3,0.4,51.4
	c0.2,7.3,0.3,14.8,0.5,22.2c-0.1,5.1-0.2,10.4-0.2,15.6c0,6.8,0,13.7,0,20.4c16.6,0,32.9,0,48.8,0c13.3,0,26.3,0,38.8,0
	c0.5-0.2-9.9,0-12.7-0.2c8.3,0,16.8,0,25.5,0c25.4,0.1,50.9,0.3,76.4,0.4c6.2,0.1,13.8,0.2,16.6,0.3c11,0.1,6.5-0.1,14.5-0.1
	l1.1,0.2c11.7-0.2,17.1,0.3,28.2,0.2c0.6-0.1,4.6-0.1,8.5-0.1c0.2,0.3,12.1,0,11.5,0.2l0.1,0c2.4,0,4,0,6.9,0
	c4.5-0.1,46.6-0.8,51.2-0.9l2.1,0c6.3,0,9-0.2,5.3-0.3l7.8,0l-0.9,0l7.7,0c1.4,0,3,0.1,0.8,0.3c4.4-0.1,9.3-0.1,13.7-0.1
	c-7.8-0.1-16.8-0.2-25.6-0.4c4.9,0,9.9-0.1,14.9-0.1c6.9,0.1,15.4,0.2,22.6,0.3c2.4,0,4-0.3,9.4-0.2c2.6,0.2,6.1,0,10.6,0.1
	c-5.2,0.1-10.2,0.1-15.4,0c0.9,0.2,12.7,0.2,16.9,0.2c1.9-0.1,12,0,18.4-0.1c-1.8,0.2,0.9,0.2,4.1,0.2c0.6,0,1.3,0,1.9,0
	c-0.6,0-1.3,0-1.9,0c1.7,0,3.4,0,4.7,0.1c4.3,0,7-0.1,5.3-0.1c0.3-0.1-0.3-0.1-1.5-0.1c10.1-0.2,21.8-0.4,19.3-0.4
	c-1.3,0-1.4-0.1-1.2-0.1c0.6,0,0.9,0,0.7-0.1c0.6-0.1,1-0.1-0.9-0.1l-1.8,0.1c-3.3,0-4.9-0.1-5.5-0.1c1.7,0,3.4,0,5.1,0
	c2.9,0,5.8,0,8.8,0c0-0.8,0-1.6,0.1-2.3c1-5.6,0.1-6.1,1-11.1l-0.3,0.2c0.2-4.4,0.4-8.8,0.6-13.3c0-0.4,0-0.8,0.1-1.1
	c0.6-8.5,1-16.6,0.9-24.1C444.2,145.4,444.2,145.3,444.2,145.2"/>
</svg>
